# xmcd
#
# Track frame offsets: 
#        150
#        12728
#        28827
#        45281
#        62937
#        72488
#        91492
#        103021
#        125856
#        140250
#        172022
#        182332
#
# Disc length: 2699 seconds
#
# Revision: 0
# Processed by: cddbd v1.5.2PL0 Copyright (c) Steve Scherf et al.
# Submitted via: ExactAudioCopyFreeDBPlugin 1.0
#
DISCID=ae0a890c
DTITLE=The Horse Thieves - Outlaw Ballads
DYEAR=2011
DGENRE=Country, Alt. Country
TTITLE0=I Am What I Am
TTITLE1=Trouble
TTITLE2=Break-Up Betty
TTITLE3=Bluebird
TTITLE4=Travelin' Man
TTITLE5=Too Many Yesterdays
TTITLE6=Ignorance Is Bliss
TTITLE7=It All Falls Down
TTITLE8=The Devil Told Me So
TTITLE9=Vagabond
TTITLE10=Dirty City
TTITLE11=Tumbleweed
EXTD=
EXTT0=
EXTT1=
EXTT2=
EXTT3=
EXTT4=
EXTT5=
EXTT6=
EXTT7=
EXTT8=
EXTT9=
EXTT10=
EXTT11=
PLAYORDER=
